<?xml version="1.0" encoding="utf-8"?>
<svg xmlns="http://www.w3.org/2000/svg" viewBox="0 0 150 150">
  <path d="m22.3058,43.1729l4.476,30.1003h-7.9992l-.4202-5.4102h-2.7999l-.4704,5.4102H7l3.9926-30.1003h11.3132Zm-4.1483,19.3542c-.3965-3.4093-.7934-7.6231-1.1922-12.6425-.7976,5.764-1.2982,9.9783-1.5022,12.6425h2.6944Z"/>
  <path d="m46.4476,43.1729v30.1003h-6.8604l-4.0716-13.6836v13.6836h-6.5444v-30.1003h6.5444l4.3877,13.5535v-13.5535h6.5444Z"/>
  <path d="m48.637,43.1729h5.8565c3.7802,0,6.3366.1738,7.6692.5206,1.3321.3472,2.3454.9175,3.0398,1.7105.6939.7934,1.1276,1.6765,1.3014,2.6493.1734.9733.2603,2.885.2603,5.7356v10.5416c0,2.7023-.1274,4.5085-.3811,5.4195-.2542.911-.6972,1.624-1.3293,2.1381-.6321.5145-1.413.8738-2.3426,1.0783s-2.3305.3068-4.2018.3068h-9.8723v-30.1003Zm7.8272,5.15v19.8004c1.1276,0,1.822-.2259,2.0823-.6786.2603-.4522.3904-1.6826.3904-3.6905v-11.6943c0-1.3633-.0437-2.2371-.1301-2.6215-.0869-.3839-.2854-.6661-.5949-.8459-.31-.1794-.8924-.2696-1.7476-.2696Z"/>
  <path d="m68.9536,43.1729h5.5404c3.6933,0,6.1939.1427,7.5018.4276,1.3075.2854,2.3733,1.0133,3.1978,2.1845.8241,1.1713,1.2364,3.0398,1.2364,5.6055,0,2.3426-.2914,3.9169-.8738,4.7223-.5829.806-1.729,1.2893-3.4395,1.4502,1.5492.3844,2.5903.8989,3.1234,1.5431.5327.6447.8645,1.2364.9947,1.7755s.1952,2.0237.1952,4.4528v7.9387h-7.2694v-10.0024c0-1.611-.1274-2.6089-.3811-2.9933-.2542-.3839-.9203-.5763-1.9986-.5763v13.5721h-7.8272v-30.1003Zm7.8272,5.15v6.6931c.8799,0,1.4966-.1208,1.8499-.3625s.5299-1.0253.5299-2.3519v-1.6547c0-.9542-.1706-1.5803-.5113-1.8778-.3412-.2975-.964-.4462-1.8685-.4462Z"/>
  <path d="m88.6194,43.1729h13.0515v6.0238h-5.2243v5.7077h4.8897v5.7263h-4.8897v6.6187h5.7449v6.0238h-13.5721v-30.1003Z"/>
  <path d="m119.6866,43.1729l4.476,30.1003h-7.9992l-.4202-5.4102h-2.7999l-.4704,5.4102h-8.0921l3.9926-30.1003h11.3132Zm-4.1483,19.3542c-.3965-3.4093-.7934-7.6231-1.1922-12.6425-.7976,5.764-1.2982,9.9783-1.5022,12.6425h2.6944Z"/>
  <path d="m142.3493,52.2829h-7.2694v-2.231c0-1.0411-.093-1.7039-.2789-1.9893-.1859-.2849-.4959-.4276-.9296-.4276-.4713,0-.8273.1924-1.069.5768-.2417.3849-.3625.9672-.3625,1.749,0,1.0044.1357,1.7611.4076,2.2696.2594.5085.9965,1.122,2.212,1.8401,3.4841,2.0684,5.6784,3.7653,6.5834,5.0914.9045,1.3265,1.3572,3.4646,1.3572,6.4142,0,2.1446-.251,3.7249-.753,4.7409-.502,1.0165-1.472,1.8685-2.9096,2.5564-1.4381.6879-3.1114,1.0319-5.0198,1.0319-2.0948,0-3.8829-.3969-5.3638-1.1899-1.4813-.7929-2.4513-1.8034-2.9096-3.0305-.4588-1.2271-.6879-2.9682-.6879-5.2243v-1.9707h7.2694v3.6626c0,1.1281.1023,1.8531.3068,2.1753.2045.3226.5671.4834,1.0876.4834s.9078-.2045,1.162-.6135c.2538-.409.3811-1.016.3811-1.822,0-1.7723-.2417-2.931-.7251-3.4767-.4959-.5452-1.717-1.4562-3.6626-2.733-1.9461-1.2889-3.235-2.2245-3.8671-2.8074-.6321-.5824-1.156-1.3879-1.571-2.4169-.4155-1.0286-.6228-2.3426-.6228-3.9415,0-2.3054.2942-3.9908.8831-5.057.5884-1.0658,1.5399-1.8992,2.8539-2.5006,1.3135-.601,2.9003-.9017,4.7595-.9017,2.0326,0,3.7649.3286,5.1964.9854,1.4316.6572,2.3798,1.4846,2.8446,2.482.4648.9979.6972,2.693.6972,5.0849v1.1899Z"/>
  <path d="m36.8144,76.7268v24.0765h4.7595v6.0238h-12.5867v-30.1003h7.8272Z"/>
  <path d="m59.0692,76.7268l4.476,30.1003h-7.9992l-.4202-5.4102h-2.7999l-.4704,5.4102h-8.0921l3.9926-30.1003h11.3132Zm-4.1483,19.3542c-.3965-3.4093-.7934-7.6231-1.1922-12.6425-.7976,5.764-1.2982,9.9783-1.5022,12.6425h2.6944Z"/>
  <path d="m82.9961,89.8341h-7.8272v-5.2318c0-1.5208-.0837-2.4704-.251-2.8474-.1673-.3774-.5364-.5661-1.1062-.5661-.6447,0-1.0537.2296-1.2271.6879-.1738.4588-.2603,1.4502-.2603,2.9747v13.9811c0,1.4627.0865,2.4169.2603,2.8632.1734.4462.5638.6693,1.1713.6693.5824,0,.9635-.2236,1.1434-.6707.1794-.4476.2696-1.4971.2696-3.1499v-3.7835h7.8272v1.1731c0,3.1155-.2203,5.3252-.66,6.628-.4402,1.3038-1.413,2.4458-2.9189,3.4265-1.5059.9803-3.3623,1.4706-5.5683,1.4706-2.2933,0-4.1832-.4155-5.6705-1.2457s-2.4727-1.98-2.9561-3.4488-.7251-3.6779-.7251-6.628v-8.794c0-2.1687.0744-3.7955.2231-4.8804.1487-1.0844.5917-2.1288,1.3293-3.1327.7372-1.004,1.7597-1.7941,3.0677-2.3705,1.3075-.5763,2.8102-.8645,4.5085-.8645,2.3054,0,4.2078.4457,5.7077,1.3368,1.4994.8915,2.4848,2.0023,2.9561,3.3331.4708,1.3303.7065,3.4005.7065,6.2102v2.8594Z"/>
  <path d="m99.0416,76.7268v6.0238l-5.829,18.0527h5.829v6.0238h-14.4273v-4.3691l6.0238-19.7074h-5.3173v-6.0238h13.7208Z"/>
  <path d="m116.5368,76.7268l4.476,30.1003h-7.9992l-.4202-5.4102h-2.7999l-.4704,5.4102h-8.0921l3.9926-30.1003h11.3132Zm-4.1483,19.3542c-.3965-3.4093-.7934-7.6231-1.1922-12.6425-.7976,5.764-1.2982,9.9783-1.5022,12.6425h2.6944Z"/>
</svg>